<svg width="36" height="28" viewBox="0 0 36 28" fill="none" xmlns="http://www.w3.org/2000/svg">
<path d="M23.3496 8.97513e-07C23.8112 8.97513e-07 24.3905 0.119002 24.8558 0.231002C26.4778 0.616005 28.4011 1.09376 29.7664 2.10001C31.0373 3.03627 32.0248 4.66903 32.7877 6.32804C34.3741 9.78432 35.4774 14.3921 35.8588 17.8956C36.0406 19.5581 36.0852 21.2311 35.759 22.3564C35.5986 22.9094 35.251 23.3259 35.0068 23.5814C34.2618 24.3567 33.3028 24.9359 32.3545 25.4627L31.884 25.7234C31.574 25.8927 31.2621 26.0584 30.9482 26.2204L30.0177 26.6929L28.7397 27.3177L27.7113 27.8147C27.3349 27.9998 26.9039 28.0481 26.4947 27.9511C26.0856 27.8542 25.7245 27.6182 25.4756 27.2849C25.2267 26.9516 25.1059 26.5426 25.1347 26.1303C25.1635 25.718 25.34 25.329 25.6329 25.0322L24.8593 23.5132C22.6349 24.1768 20.3217 24.5095 17.9969 24.5002C15.5549 24.5002 13.2253 24.1502 11.1344 23.5132L10.3626 25.0287C10.6567 25.325 10.8343 25.7139 10.864 26.1266C10.8937 26.5392 10.7735 26.9489 10.5248 27.2828C10.2761 27.6167 9.915 27.8534 9.5055 27.9507C9.096 28.0481 8.66461 27.9999 8.28786 27.8147L7.31821 27.3422C6.2416 26.8207 5.165 26.2992 4.11692 25.7234C3.02249 25.1232 1.86212 24.4844 0.994063 23.5797C0.647653 23.2359 0.389783 22.8159 0.241868 22.3546C-0.0861033 21.2311 -0.0397596 19.5599 0.140268 17.8956C0.521713 14.3921 1.62505 9.78432 3.21322 6.32804C3.97432 4.66903 4.9618 3.03627 6.23269 2.10001C7.59805 1.09376 9.52132 0.616005 11.1433 0.231002C11.6086 0.119002 12.1861 8.97513e-07 12.6495 8.97513e-07C12.9059 -0.00021645 13.1593 0.053858 13.3924 0.158535C13.6255 0.263213 13.8329 0.41603 14.0004 0.606561C14.1679 0.797092 14.2916 1.02085 14.363 1.26258C14.4344 1.50431 14.4518 1.75831 14.4142 2.00726C15.6003 1.83495 16.7978 1.74897 17.9969 1.75001C19.2286 1.75001 20.4317 1.83751 21.5867 2.00901C21.5488 1.75993 21.566 1.50573 21.6373 1.26379C21.7086 1.02185 21.8322 0.797863 21.9997 0.607132C22.1672 0.4164 22.3747 0.263419 22.608 0.158638C22.8413 0.0538572 23.0931 -0.000254163 23.3496 8.97513e-07ZM25.7648 4.13528C25.4974 4.05128 25.4333 4.08803 25.337 4.24553L25.2265 4.44153C24.9384 4.92639 24.501 5.30896 23.9773 5.53414C23.4535 5.75932 22.8705 5.81548 22.3122 5.69454C20.894 5.39565 19.4474 5.24663 17.9969 5.25004C16.4782 5.25004 15.0255 5.40754 13.6833 5.69454C13.125 5.81548 12.542 5.75932 12.0183 5.53414C11.4946 5.30896 11.0571 4.92639 10.769 4.44153L10.6585 4.24728C10.5641 4.08978 10.4999 4.05303 10.2343 4.13528C9.59975 4.33303 8.91885 4.54478 8.37164 4.90003C7.86007 5.27629 7.17739 6.21254 6.46263 7.7683C5.09727 10.7381 4.0278 15.1254 3.68557 18.2684C3.61427 18.9316 3.57684 19.5004 3.56792 19.9694V20.4839C3.57505 20.7954 3.59823 21.0421 3.63031 21.2224C4.08305 21.6564 4.64274 21.9976 5.20422 22.3109L6.41985 22.9707L7.21482 23.3819L7.86364 22.1079C7.54951 21.8205 7.35159 21.4315 7.30626 21.0123C7.26093 20.5931 7.37124 20.172 7.6169 19.8262C7.86257 19.4805 8.22709 19.2335 8.64344 19.1305C9.0598 19.0276 9.50001 19.0756 9.88316 19.2659C12.0506 20.3351 14.8705 21.0001 17.9969 21.0001C21.1215 21.0001 23.9431 20.3316 26.1106 19.2676C26.4774 19.0872 26.8963 19.0366 27.2967 19.1242C27.6971 19.2118 28.0545 19.4323 28.3085 19.7486C28.5626 20.0648 28.6977 20.4574 28.6912 20.8601C28.6847 21.2628 28.5369 21.651 28.2727 21.9591L28.1301 22.1079L28.7789 23.3854C29.3101 23.1159 29.8431 22.8307 30.3778 22.5401C31.073 22.1621 31.8038 21.7649 32.3688 21.2224C32.4009 21.0421 32.4223 20.7954 32.4312 20.4839V19.9694C32.4167 19.4004 32.3775 18.8323 32.3135 18.2666C31.9713 15.1253 30.9018 10.7381 29.5365 7.76655C28.8235 6.21254 28.139 5.27629 27.6293 4.90003C27.0803 4.54478 26.4011 4.33303 25.7648 4.13528ZM12.2039 11.3751C13.0312 11.3751 13.8246 11.6977 14.4096 12.2721C14.9946 12.8464 15.3232 13.6254 15.3232 14.4376C15.3232 15.2498 14.9946 16.0288 14.4096 16.6031C13.8246 17.1775 13.0312 17.5001 12.2039 17.5001C11.3766 17.5001 10.5832 17.1775 9.99824 16.6031C9.41326 16.0288 9.08462 15.2498 9.08462 14.4376C9.08462 13.6254 9.41326 12.8464 9.99824 12.2721C10.5832 11.6977 11.3766 11.3751 12.2039 11.3751ZM23.7899 11.3751C24.6171 11.3751 25.4105 11.6977 25.9955 12.2721C26.5805 12.8464 26.9091 13.6254 26.9091 14.4376C26.9091 15.2498 26.5805 16.0288 25.9955 16.6031C25.4105 17.1775 24.6171 17.5001 23.7899 17.5001C22.9626 17.5001 22.1692 17.1775 21.5842 16.6031C20.9992 16.0288 20.6706 15.2498 20.6706 14.4376C20.6706 13.6254 20.9992 12.8464 21.5842 12.2721C22.1692 11.6977 22.9626 11.3751 23.7899 11.3751Z" fill="currentColor"/>
</svg>
